# Blender 3.5.0
# www.blender.org
o Plane
v -12.000000 0.000000 0.000000
v 12.000000 0.000000 0.000000
v -12.000000 15.000000 0.000000
v 12.000000 15.000000 0.000000
v 0.750000 0.000000 0.000000
v -0.750000 0.000000 0.000000
v 0.750000 2.500000 0.000000
v -0.750000 2.500000 0.000000
vn -0.0000 -0.0000 1.0000
vt 0.000000 1.000000
vt 1.000000 1.000000
vt 0.000000 1.000000
vt 1.000000 1.000000
vt 0.500000 1.000000
vt 0.250000 1.000000
vt 0.500000 1.000000
vt 0.250000 1.000000
s 0
f 1/1/1 6/6/1 8/8/1 7/7/1 5/5/1 2/2/1 4/4/1 3/3/1
l 5 6
